<svg width="170" height="48" viewBox="0 0 170 48" fill="none" xmlns="http://www.w3.org/2000/svg">
<path d="M167.698 20.838C167.698 22.6552 166.244 24.2302 164.427 24.2302C162.61 24.2302 161.035 22.7764 161.035 20.9591C161.035 19.1418 162.489 17.5669 164.306 17.5669C166.123 17.5669 167.698 19.0207 167.698 20.838ZM150.495 1.57496C148.677 1.57496 147.103 3.14992 147.224 4.96719C147.224 6.78445 148.799 8.23826 150.616 8.23826C152.433 8.23826 153.887 6.6633 153.887 4.84604C153.887 3.02877 152.433 1.57496 150.495 1.57496ZM141.651 0C140.197 0 139.107 1.21151 139.107 2.66532C139.107 4.11913 140.318 5.20949 141.772 5.20949C143.226 5.20949 144.316 3.99798 144.316 2.54417C144.316 1.09036 143.105 0 141.651 0ZM163.216 11.7516C163.216 9.44977 161.277 7.63251 158.975 7.63251C156.673 7.63251 154.856 9.57092 154.856 11.8728C154.856 14.1747 156.795 15.9919 159.096 15.9919C161.398 15.8708 163.337 14.0535 163.216 11.7516ZM163.216 27.1378C161.883 27.1378 160.914 28.2282 160.914 29.5608C160.914 30.8935 162.004 31.8627 163.337 31.8627C164.669 31.8627 165.76 30.7723 165.639 29.4397C165.639 28.107 164.548 27.1378 163.216 27.1378ZM157.037 31.4992C156.31 31.4992 155.704 32.105 155.704 32.9531C155.704 33.68 156.31 34.2857 157.158 34.2857C157.885 34.2857 158.491 33.68 158.491 32.8319C158.491 31.9838 157.764 31.3781 157.037 31.4992ZM136.078 4.96719C135.23 4.96719 134.503 5.69409 134.624 6.54215C134.745 7.39021 135.351 7.99596 136.199 7.99596C137.047 7.99596 137.774 7.26906 137.653 6.421C137.532 5.57294 136.926 4.96719 136.078 4.96719ZM135.593 11.3882C134.866 11.3882 134.382 11.9939 134.382 12.5997C134.382 13.2055 134.987 13.8112 135.593 13.8112C136.199 13.8112 136.805 13.2055 136.805 12.5997C136.805 11.8728 136.32 11.3882 135.593 11.3882Z" fill="navy"/>
<path d="M147.932 24.3517L152.778 19.5057C153.141 19.1422 153.141 18.6576 153.02 18.173C152.778 17.6884 152.414 17.4461 151.809 17.4461C151.445 17.4461 151.203 17.5673 150.961 17.8096L146.115 22.6556L141.147 17.6884C140.905 17.4461 140.542 17.325 140.299 17.325C139.815 17.325 139.33 17.6884 139.088 18.0519C138.846 18.5365 138.967 19.0211 139.33 19.3845L144.297 24.3517L139.451 29.1977C139.088 29.5612 138.967 30.0458 139.209 30.5304C139.451 31.015 139.815 31.2573 140.421 31.2573C140.784 31.2573 141.026 31.1362 141.269 30.8939L146.115 26.0478L150.961 30.5304C151.203 30.7727 151.566 30.8939 151.809 30.8939C152.293 30.8939 152.778 30.6516 153.02 30.167C153.263 29.6823 153.141 29.1977 152.778 28.8343L147.932 24.3517Z" fill="navy"/>
<path d="M12.2436 17.325H3.15727C2.30922 17.325 1.70346 18.0519 1.70346 18.8999V29.9247C1.70346 30.6516 2.30922 31.3785 3.15727 31.3785H12.2436C14.0609 31.3785 15.757 29.6824 15.757 27.9862V20.8383C15.757 19.0211 14.0609 17.325 12.2436 17.325ZM13.2128 27.8651C13.2128 28.3497 12.7282 28.8343 12.2436 28.8343C10.6686 28.8343 9.21482 28.8343 7.63986 28.8343H7.39756C6.3072 28.8343 5.33799 28.8343 4.24763 28.8343V19.8691H12.3647C12.8494 19.8691 13.334 20.3537 13.334 20.8383V27.8651H13.2128Z" fill="navy"/>
<path d="M32.8595 17.325H26.075C24.0155 17.325 22.4405 18.8999 22.4405 20.8383V30.167C22.4405 30.8939 23.0462 31.3785 23.652 31.3785C24.3789 31.3785 24.8635 30.7727 24.8635 30.167V25.9267H33.9498V30.167C33.9498 30.8939 34.5556 31.3785 35.1613 31.3785C35.8882 31.3785 36.3729 30.7727 36.3729 30.167V20.8383C36.6152 18.6576 34.6767 17.325 32.8595 17.325ZM34.071 23.5037H24.9847V20.8383C24.9847 20.2326 25.5904 19.8691 26.1962 19.8691H32.9806C33.5864 19.8691 34.1921 20.2326 34.1921 20.8383V23.5037H34.071Z" fill="navy"/>
<path d="M52.9732 17.325H43.16C42.4331 17.325 41.9485 17.9307 41.9485 18.5365C41.9485 19.2634 42.5542 19.748 43.16 19.748H46.7945V30.167C46.7945 30.8939 47.4003 31.3785 48.006 31.3785C48.7329 31.3785 49.2175 30.7727 49.2175 30.167V19.8691H52.8521C53.579 19.8691 54.0636 19.2634 54.0636 18.6576C54.3059 17.9307 53.7001 17.325 52.9732 17.325Z" fill="navy"/>
<path d="M70.543 17.325H63.7585C61.699 17.325 60.124 18.8999 60.124 20.8383V30.167C60.124 30.8939 60.6086 31.3785 61.3355 31.3785C62.0624 31.3785 62.547 30.7727 62.547 30.167V25.9267H71.6333V30.167C71.6333 30.8939 72.2391 31.3785 72.8448 31.3785C73.5717 31.3785 74.0563 30.7727 74.0563 30.167V20.8383C74.1775 18.6576 72.3602 17.325 70.543 17.325ZM71.7545 23.5037H62.6682V20.8383C62.6682 20.2326 63.2739 19.8691 63.8797 19.8691H70.6641C71.2699 19.8691 71.8756 20.2326 71.8756 20.8383V23.5037H71.7545Z" fill="navy"/>
<path d="M91.7244 23.1392H84.213C83.4861 23.1392 83.2438 22.17 83.2438 21.443C83.2438 20.8373 83.4861 19.8681 84.213 19.8681H92.4513C93.1782 19.8681 93.6628 19.2623 93.6628 18.6566C93.6628 17.9297 93.057 17.4451 92.4513 17.4451H84.213C81.9112 17.4451 80.8208 19.5046 80.8208 21.5642C80.8208 23.6238 81.9112 25.6833 84.3342 25.6833H91.7244C92.4513 25.6833 92.6936 26.6525 92.6936 27.3794C92.6936 27.9852 92.4513 28.9544 91.7244 28.9544H82.2746C81.5477 28.9544 81.0631 29.439 81.0631 30.1659C81.0631 30.8928 81.6689 31.3774 82.2746 31.3774H91.7244C94.1474 31.3774 95.1166 29.1967 95.1166 27.2583C95.1166 25.1987 93.9051 23.1392 91.7244 23.1392Z" fill="navy"/>
<path d="M111.46 17.325H100.798C100.071 17.325 99.5868 17.9307 99.5868 18.5365C99.5868 19.2634 100.193 19.748 100.798 19.748H105.281V24.3517C105.281 26.5324 105.281 28.7131 105.281 30.0458C105.281 30.7727 105.887 31.2573 106.492 31.2573C107.219 31.2573 107.704 30.6516 107.704 30.0458V19.748H111.338C112.065 19.748 112.55 19.1422 112.55 18.5365C112.792 17.9307 112.186 17.325 111.46 17.325Z" fill="navy"/>
<path d="M129.055 17.325H122.271C120.211 17.325 118.636 18.8999 118.636 20.8383V30.167C118.636 30.8939 119.242 31.3785 119.847 31.3785C120.574 31.3785 121.059 30.7727 121.059 30.167V25.9267H130.145V30.167C130.145 30.8939 130.751 31.3785 131.357 31.3785C132.084 31.3785 132.568 30.7727 132.568 30.167V20.8383C132.69 18.6576 130.751 17.325 129.055 17.325ZM130.145 23.5037H121.059V20.8383C121.059 20.2326 121.665 19.8691 122.271 19.8691H129.055C129.661 19.8691 130.266 20.2326 130.266 20.8383V23.5037H130.145Z" fill="navy"/>
</svg>
